<svg xmlns="http://www.w3.org/2000/svg" width="20" height="20" fill="none"><g fill="#AFB1B8" clip-path="url(#a)"><path d="M19.92 19.688h.006v-7.335c0-3.589-.773-6.353-4.968-6.353-2.016 0-3.37 1.107-3.922 2.156h-.059V6.335H7v13.352h4.142v-6.611c0-1.741.33-3.424 2.486-3.424 2.124 0 2.155 1.986 2.155 3.536v6.5h4.138ZM.33 6.647h4.147V20H.33V6.647ZM2.402 0A2.402 2.402 0 0 0 0 2.402c0 1.325 1.076 2.424 2.402 2.424 1.325 0 2.401-1.098 2.401-2.424A2.403 2.403 0 0 0 2.402 0Z"/></g><defs><clipPath id="a"><path fill="#fff" d="M0 0h20v20H0z"/></clipPath></defs></svg>